:version 1.10
:name ASF
:units
  mass 1
  length 1
  angle deg
:documentation
  ASF file generated by Kaydara
:root
  axis xyz
  order  tx ty tz rx ry rz
  position 0 0 0
  orientation 0 0 0
:bonedata
  begin
    id 1
    name lfemurDummy
    direction 0.61522 -0.761478 0.204097
    length 5.68318
    axis 0 -0 0 xyz
  end
  begin
    id 2
    name lfemur
    direction 0.34202 -0.939693 -5.84747e-008
    length 16.9147
    axis 0 -0 20 xyz
    dof rx ry rz
    limits( -inf , inf )
( -inf , inf )
( -inf , inf )

  end
  begin
    id 3
    name ltibia
    direction 0.34202 -0.939693 1.20839e-009
    length 18.0532
    axis 0 -0 20 xyz
    dof rz ry rx
    limits( -inf , inf )
( -inf , inf )
( -inf , inf )

  end
  begin
    id 4
    name lfoot
    direction 0.0841971 -0.23133 0.969225
    length 5.23822
    axis -90 7.62852e-016 20 xyz
    dof ry rx rz
    limits( -inf , inf )
( -inf , inf )
( -inf , inf )

  end
  begin
    id 5
    name ltoes
    direction 0 0 0
    length 0
    axis 0 0 0 xyz
    dof rz ry rx
    limits( -inf , inf )
( -inf , inf )
( -inf , inf )

  end
  begin
    id 6
    name rfemurDummy
    direction -0.625247 -0.75382 0.202044
    length 5.74091
    axis 0 -0 0 xyz
  end
  begin
    id 7
    name rfemur
    direction -0.34202 -0.939693 -1.47013e-008
    length 16.4922
    axis 0 -0 -20 xyz
    dof rx ry rz
    limits( -inf , inf )
( -inf , inf )
( -inf , inf )

  end
  begin
    id 8
    name rtibia
    direction -0.34202 -0.939693 -7.74345e-010
    length 18.2421
    axis 0 -0 -20 xyz
    dof rz ry rx
    limits( -inf , inf )
( -inf , inf )
( -inf , inf )

  end
  begin
    id 9
    name rfoot
    direction -0.124331 -0.341598 0.931586
    length 5.45787
    axis -90 -7.62852e-016 -20 xyz
    dof ry rx rz
    limits( -inf , inf )
( -inf , inf )
( -inf , inf )

  end
  begin
    id 10
    name rtoes
    direction 0 0 0
    length 0
    axis 0 0 0 xyz
    dof rz ry rx
    limits( -inf , inf )
( -inf , inf )
( -inf , inf )

  end
  begin
    id 11
    name lowerbackDummy
    direction 0 0 0
    length 0
    axis 0 -0 0 xyz
  end
  begin
    id 12
    name lowerback
    direction -0.0218484 0.994884 -0.0986304
    length 4.45607
    axis 0 -0 0 xyz
    dof rx ry rz
    limits( -inf , inf )
( -inf , inf )
( -inf , inf )

  end
  begin
    id 13
    name upperback
    direction -0.00973057 0.999717 -0.0217111
    length 4.47449
    axis 0 -0 0 xyz
    dof rx ry rz
    limits( -inf , inf )
( -inf , inf )
( -inf , inf )

  end
  begin
    id 14
    name thorax
    direction -0.000928171 0.999699 0.0245198
    length 4.50973
    axis 0 -0 0 xyz
    dof rx ry rz
    limits( -inf , inf )
( -inf , inf )
( -inf , inf )

  end
  begin
    id 15
    name rclavicle
    direction -0.9009 0.425937 -0.0834055
    length 7.28587
    axis 0 -0 0 xyz
    dof rx ry rz
    limits( -inf , inf )
( -inf , inf )
( -inf , inf )

  end
  begin
    id 16
    name rhumerus
    direction -1 -2.23604e-007 -1.42637e-007
    length 13.5704
    axis 180 30 90 xyz
    dof rx ry rz
    limits( -inf , inf )
( -inf , inf )
( -inf , inf )

  end
  begin
    id 17
    name rradius
    direction -1 5.68281e-008 -4.4952e-007
    length 8.06782
    axis 180 30 90 xyz
    dof rz ry rx
    limits( -inf , inf )
( -inf , inf )
( -inf , inf )

  end
  begin
    id 18
    name rwrist
    direction -1 1.51393e-007 1.38143e-007
    length 4.03391
    axis -90 -90 0 xyz
    dof rz rx ry
    limits( -inf , inf )
( -inf , inf )
( -inf , inf )

  end
  begin
    id 19
    name rthumb
    direction 0 0 0
    length 0
    axis 0 0 0 xyz
    dof ry rx rz
    limits( -inf , inf )
( -inf , inf )
( -inf , inf )

  end
  begin
    id 20
    name rhand
    direction -1 -3.34077e-007 -5.59631e-007
    length 1.29744
    axis -90 -90 0 xyz
    dof ry rx rz
    limits( -inf , inf )
( -inf , inf )
( -inf , inf )

  end
  begin
    id 21
    name rfingers
    direction 0 0 0
    length 0
    axis 0 0 0 xyz
    dof rz ry rx
    limits( -inf , inf )
( -inf , inf )
( -inf , inf )

  end
  begin
    id 22
    name lclavicle
    direction 0.940017 0.332249 -0.0773232
    length 8.29589
    axis 0 -0 0 xyz
    dof rx ry rz
    limits( -inf , inf )
( -inf , inf )
( -inf , inf )

  end
  begin
    id 23
    name lhumerus
    direction 1 7.41158e-008 -1.44768e-008
    length 12.0042
    axis 180 -30 -90 xyz
    dof rx ry rz
    limits( -inf , inf )
( -inf , inf )
( -inf , inf )

  end
  begin
    id 24
    name lradius
    direction 1 -1.32972e-007 3.10821e-007
    length 8.1902
    axis 180 -30 -90 xyz
    dof rz ry rx
    limits( -inf , inf )
( -inf , inf )
( -inf , inf )

  end
  begin
    id 25
    name lwrist
    direction 1 3.08957e-007 4.01394e-007
    length 4.09509
    axis -90 90 0 xyz
    dof rz rx ry
    limits( -inf , inf )
( -inf , inf )
( -inf , inf )

  end
  begin
    id 26
    name lthumb
    direction 0 0 0
    length 0
    axis 0 0 0 xyz
    dof ry rx rz
    limits( -inf , inf )
( -inf , inf )
( -inf , inf )

  end
  begin
    id 27
    name lhand
    direction 1 -1.64125e-007 -6.99514e-007
    length 1.37229
    axis -90 90 0 xyz
    dof ry rx rz
    limits( -inf , inf )
( -inf , inf )
( -inf , inf )

  end
  begin
    id 28
    name lfingers
    direction 0 0 0
    length 0
    axis 0 0 0 xyz
    dof rz ry rx
    limits( -inf , inf )
( -inf , inf )
( -inf , inf )

  end
  begin
    id 29
    name lowerneck
    direction -0.030798 0.998024 0.0547665
    length 3.93918
    axis 0 -0 0 xyz
    dof rx ry rz
    limits( -inf , inf )
( -inf , inf )
( -inf , inf )

  end
  begin
    id 30
    name upperneck
    direction 0.0531588 0.996611 -0.0627736
    length 3.95491
    axis 0 -0 0 xyz
    dof rx ry rz
    limits( -inf , inf )
( -inf , inf )
( -inf , inf )

  end
  begin
    id 31
    name head
    direction 0 0 0
    length 0
    axis 0 0 0 xyz
    dof rx ry rz
    limits( -inf , inf )
( -inf , inf )
( -inf , inf )

  end
:hierarchy
  begin
    root lfemurDummy rfemurDummy lowerbackDummy
    lfemurDummy lfemur
    lfemur ltibia
    ltibia lfoot
    lfoot ltoes
    rfemurDummy rfemur
    rfemur rtibia
    rtibia rfoot
    rfoot rtoes
    lowerbackDummy lowerback
    lowerback upperback
    upperback thorax
    thorax rclavicle lclavicle lowerneck
    rclavicle rhumerus
    rhumerus rradius
    rradius rwrist
    rwrist rthumb rhand
    rhand rfingers
    lclavicle lhumerus
    lhumerus lradius
    lradius lwrist
    lwrist lthumb lhand
    lhand lfingers
    lowerneck upperneck
    upperneck head
  end

:SAMPLES-PER-SECOND 30
:FULLY-SPECIFIED
:DEGREES
28
root  2.527199955 37.71066741 3.349800185 -13.66900635 3.561004639 1.79699707
lowerback  4.778940201 2.668679953 9.476969719
upperback  0.9437540174 4.131909847 5.669970036
thorax  -1.457489967 2.029030085 0.3540579975
lowerneck  -8.277700424 0.3355610073 -6.149839878
upperneck  19.04660034 1.95468998 -2.343849897
head  7.191619873 0.3241629899 0.4327070117
lclavicle  0 -9.442270133e-015 7.951389973e-016
lhumerus  6.607359886 -20.30830002 86.64890289
lradius  2.210790449e-031 -2.753406913e-031 128.7619934
lwrist  -7.062250077e-031 -5.296687558e-031 8.379050255
lhand  -1.496451383e-031 -27.76390076 20.11240005
lfingers  90 7.125020027 -90
lthumb  89.89689403 5.08795885 91.16245106
rclavicle  0 -9.442270133e-015 7.951389973e-016
rhumerus  12.81869984 27.52750015 -77.40249634
rradius  -2.555015624e-031 2.437363165e-031 136.3500061
rwrist  7.062250077e-031 -1.765562519e-031 -6.934979916
rhand  -7.920061211e-032 -33.2840004 9.303460121
rfingers  -90 -7.125020027 -90
rthumb  -92.93752616 -24.25625642 -97.11982154
rfemur  5.836299896 10.30189991 12.20170021
rtibia  -0 0 62.25379944
rfoot  -0 -14.84090042 -6.917439938
rtoes  5.373923086 19.29304026 -105.8922705
lfemur  -24.49869919 9.582480431 -18.4185009
ltibia  -0 0 60.62649918
lfoot  -0 -7.648429871 -14.35719967
ltoes  -4.250644065 -19.5611806 -102.515957
29
root  2.535866752 37.55355595 3.336222341 -14.10400391 4.378005981 2.210021973
lowerback  4.935050011 2.969749928 9.749970436
upperback  0.989587009 4.565569878 5.792089939
thorax  -1.459529996 2.244600058 0.30616799
lowerneck  -8.700790405 -0.008233640343 -6.143949986
upperneck  19.55509949 1.589030027 -2.57133007
head  7.445020199 0.1104639992 0.3287610114
lclavicle  0 -9.442270133e-015 7.951389973e-016
lhumerus  6.217020035 -20.00650024 86.43190002
lradius  2.253861614e-031 -2.718262655e-031 129.6640015
lwrist  -7.062250077e-031 -3.531125038e-031 8.326390266
lhand  -1.496451383e-031 -27.76390076 20.11240005
lfingers  90 7.125020027 -90
lthumb  89.89689403 5.08795885 91.16245106
rclavicle  0 -9.442270133e-015 7.951389973e-016
rhumerus  13.76169968 27.27809906 -77.50759888
rradius  -2.548113829e-031 2.444577663e-031 136.1880035
rwrist  1.412450015e-030 1.765562519e-031 -7.069149971
rhand  -7.920061211e-032 -33.2840004 9.303460121
rfingers  -90 -7.125020027 -90
rthumb  -92.93752616 -24.25625642 -97.11982154
rfemur  5.945489883 10.30550003 11.88780022
rtibia  -0 0 63.30189896
rfoot  -9.127795826e-032 -14.72990036 -6.901030064
rtoes  5.373923086 19.29304026 -105.8922705
lfemur  -24.89340019 9.869609833 -18.64550018
ltibia  -0 0 61.93659973
lfoot  -0 -6.968420029 -15.4229002
ltoes  -4.250644065 -19.5611806 -102.515957
30
root  2.540177811 37.39133219 3.30735567 -14.50500488 5.220001221 2.82800293
lowerback  5.143710136 3.088320017 9.594630241
upperback  1.197970033 4.730549812 6.044209957
thorax  -1.382429957 2.336179972 0.6380630136
lowerneck  -9.405389786 -0.2066570073 -6.430140018
upperneck  19.92819977 1.506690025 -2.864010096
head  7.702410221 0.005000900012 0.2742089927
lclavicle  0 -9.442270133e-015 7.951389973e-016
lhumerus  6.445980072 -19.14730072 86.16889954
lradius  2.273302168e-031 -2.702025405e-031 130.0749969
lwrist  0 -0 8.146889687
lhand  -1.496451383e-031 -27.76390076 20.11240005
lfingers  90 7.125020027 -90
lthumb  89.89689403 5.08795885 91.16245106
rclavicle  0 -9.442270133e-015 7.951389973e-016
rhumerus  15.13749981 27.51420021 -77.35949707
rradius  -2.546064793e-031 2.446711692e-031 136.1399994
rwrist  7.062250077e-031 -0 -6.84442997
rhand  -7.920061211e-032 -33.2840004 9.303460121
rfingers  -90 -7.125020027 -90
rthumb  -92.93752616 -24.25625642 -97.11982154
rfemur  6.03704977 10.25809956 11.30370045
rtibia  -0 0 64.38240051
rfoot  -0 -14.65270042 -7.040480137
rtoes  5.373923086 19.29304026 -105.8922705
lfemur  -25.31640053 10.1012001 -19.13120079
ltibia  -0 0 63.19729996
lfoot  -0 -6.474490166 -15.92399979
ltoes  -4.250644065 -19.5611806 -102.515957
31
root  2.542133406 37.22311005 3.264133198 -14.94799805 6.102996826 3.562988281
lowerback  5.400839806 3.262660027 9.288740158
upperback  2.106709957 4.890860081 6.101920128
thorax  -0.5974370241 2.463609934 0.8754680157
lowerneck  -12.49209976 -0.524344027 -6.205220222
upperneck  20.63809967 1.393319964 -3.179339886
head  8.50965023 -0.1244190037 0.1208539978
lclavicle  0 -9.442270133e-015 7.951389973e-016
lhumerus  7.608980179 -18.71409988 85.39700317
lradius  2.313555365e-031 -2.667640457e-031 130.9340057
lwrist  -7.062250077e-031 -3.531125038e-031 7.611360073
lhand  -1.496451383e-031 -27.76390076 20.11240005
lfingers  90 7.125020027 -90
lthumb  89.89689403 5.08795885 91.16245106
rclavicle  0 -9.442270133e-015 7.951389973e-016
rhumerus  17.92429924 26.9939003 -76.72440338
rradius  -2.54132029e-031 2.451639293e-031 136.029007
rwrist  1.412450015e-030 -0 -6.702449799
rhand  -7.920061211e-032 -33.2840004 9.303460121
rfingers  -90 -7.125020027 -90
rthumb  -92.93752616 -24.25625642 -97.11982154
rfemur  6.274680138 10.16170025 10.56190014
rtibia  -0 0 65.44400024
rfoot  -0 -14.90030003 -7.012599945
rtoes  5.373923086 19.29304026 -105.8922705
lfemur  -25.69809914 10.24510002 -19.78829956
ltibia  -0 0 64.44280243
lfoot  -0 -6.088530064 -16.06209946
ltoes  -4.250644065 -19.5611806 -102.515957
